<?xml version="1.0" encoding="UTF-8"?>
<svg version="1.1" xmlns="http://www.w3.org/2000/svg" width="1369" height="1164">
<path d="M0 0 C0.55993652 0.45842285 1.11987305 0.9168457 1.69677734 1.38916016 C14.38630954 11.83707535 25.83132947 23.0634095 36 36 C36.90878906 37.07314453 36.90878906 37.07314453 37.8359375 38.16796875 C70.28890396 76.85135704 91.24019207 126.21864652 98 176 C98.1045752 176.75531006 98.20915039 177.51062012 98.31689453 178.28881836 C99.33791866 186.83784058 99.24380011 195.46493182 99.25 204.0625 C99.25101212 205.32563522 99.25101212 205.32563522 99.25204468 206.61428833 C99.15196989 285.54337081 63.57539037 354.22972431 8.875 409.25 C8.31828613 409.81138672 7.76157227 410.37277344 7.18798828 410.95117188 C3.24646467 414.87676767 3.24646467 414.87676767 1 416 C2.63466469 416.00879936 2.63466469 416.00879936 4.30235291 416.01777649 C14.64264648 416.07533666 24.98273643 416.14826752 35.32282162 416.23571491 C40.63699219 416.28017792 45.95109033 416.31948504 51.26538086 416.34643555 C56.40730916 416.37271123 61.54895498 416.41327909 66.69070625 416.46318626 C68.63875336 416.47969275 70.58684915 416.49130678 72.53495598 416.49761391 C89.15574957 416.5567954 104.84846896 417.51007885 120 425 C120.91007813 425.41894531 121.82015625 425.83789062 122.7578125 426.26953125 C130.75420072 430.2221619 136.74970396 435.75868427 143 442 C144.00546875 442.98806641 144.00546875 442.98806641 145.03125 443.99609375 C159.0380786 458.79876489 165.38279241 479.69989285 165.22705078 499.70385742 C165.22734283 500.71008148 165.22763489 501.71630554 165.22793579 502.75302124 C165.22655647 506.03726204 165.21106181 509.3212682 165.1953125 512.60546875 C165.19157739 514.89903133 165.18873277 517.19259552 165.18673706 519.48616028 C165.17913981 525.49155159 165.15952523 531.49684453 165.1373291 537.50219727 C165.11678609 543.64272735 165.10771733 549.7832735 165.09765625 555.92382812 C165.07627537 567.94926172 165.04218709 579.97462264 165 592 C168.74748914 589.86015121 172.49478232 587.71995971 176.24191284 585.57948303 C177.51021342 584.85504944 178.77856275 584.1307012 180.04696655 583.40644836 C191.97656017 576.59456582 203.87908689 569.73653738 215.7734375 562.86328125 C219.03524007 560.9796495 222.29861844 559.09877679 225.5625 557.21875 C236.01713032 551.19560214 246.46042007 545.15466632 256.875 539.0625 C265.51282524 534.01161675 274.18344236 529.02019325 282.875 524.0625 C284.06015249 523.38625241 285.24529247 522.70998287 286.43041992 522.03369141 C287.0165657 521.6992099 287.60271149 521.36472839 288.20661926 521.02011108 C323.32432391 500.99529056 323.32432391 500.99529056 357.75 479.8125 C417.21280275 441.88875652 417.21280275 441.88875652 449.93359375 441.83203125 C450.680681 441.8278418 451.42776825 441.82365234 452.19749451 441.81933594 C454.61088373 441.80959351 457.02409442 441.809541 459.4375 441.8125 C460.25970032 441.81277191 461.08190063 441.81304382 461.92901611 441.81332397 C472.266534 441.82905361 482.56416722 441.99533407 492.875 442.8125 C494.28736938 442.91751831 494.28736938 442.91751831 495.72827148 443.0246582 C501.7362871 443.58216025 507.12227121 444.49279423 511.8203125 448.5859375 C518.91113836 458.30928553 521.74877608 468.6639718 521.80342102 480.56800842 C521.83950139 482.46542474 521.83950139 482.46542474 521.87631065 484.4011727 C521.94149722 488.09909062 521.96926298 491.7964902 521.98737028 495.49491039 C522.00062966 498.1248933 522.01959214 500.75479547 522.03928161 503.38473773 C522.13984091 517.64128653 522.14823318 531.8975673 522.14538372 546.15441048 C522.1451772 552.61844537 522.15072161 559.08247597 522.15544128 565.54650879 C522.16390377 578.16470908 522.16650646 590.78290536 522.16705366 603.4011082 C522.16751554 613.65770116 522.1695859 623.91429262 522.17275429 634.17088509 C522.17365196 637.13695639 522.17454178 640.1030277 522.17542917 643.06909901 C522.17565021 643.80668242 522.17587126 644.54426583 522.17609901 645.30420026 C522.1822376 665.99885582 522.18620108 686.69351087 522.18575573 707.38816738 C522.18574015 708.16570743 522.18572457 708.94324747 522.18570852 709.74434933 C522.18562543 713.68419276 522.18552639 717.62403618 522.18542381 721.5638796 C522.1853939 722.73734881 522.1853939 722.73734881 522.18536337 723.93452447 C522.18532294 725.51653699 522.18528114 727.09854951 522.18523798 728.68056202 C522.18462418 753.33660778 522.19215757 777.99263981 522.20581055 802.64868164 C522.22118073 830.4165504 522.22977647 858.18441016 522.22884732 885.95228344 C522.2287727 888.91363943 522.22872399 891.87499541 522.22869301 894.83635139 C522.22868135 895.56539794 522.2286697 896.29444449 522.22865769 897.04558336 C522.22862699 908.7512958 522.2349978 920.45699626 522.24362527 932.16270515 C522.25211288 943.92148741 522.25291151 955.68025072 522.24651595 967.43903439 C522.24325259 973.8024793 522.24318788 980.1658809 522.2518692 986.52932167 C522.25974152 992.35961865 522.2582953 998.18983804 522.24958507 1004.02013315 C522.24805187 1006.12312366 522.24985941 1008.22611999 522.25544515 1010.32910364 C522.34259361 1045.48122323 522.34259361 1045.48122323 513.75 1054.3125 C501.8286713 1061.6278608 487.07238337 1061.35448167 473.49682617 1061.31567383 C471.19987267 1061.312517 468.90421738 1061.33607245 466.60742188 1061.36132812 C429.08971904 1061.52237303 396.22799533 1044.70654754 365.11376953 1025.27587891 C357.00607138 1020.21289924 348.82065911 1015.31255613 340.5625 1010.5 C339.65531219 1009.97116211 339.65531219 1009.97116211 338.72979736 1009.43164062 C337.82254913 1008.90280273 337.82254913 1008.90280273 336.89697266 1008.36328125 C335.67740017 1007.65235864 334.45783636 1006.94142116 333.23828125 1006.23046875 C332.33493042 1005.70409317 332.33493042 1005.70409317 331.41333008 1005.16708374 C327.27699197 1002.75387251 323.15554744 1000.31674154 319.04296875 997.86328125 C307.18419554 990.79043068 295.27375941 983.85152358 283.20214844 977.14770508 C276.08111337 973.18700924 269.02611288 969.12652019 262 965 C252.77713728 959.58618564 243.48249909 954.31565949 234.14233398 949.10717773 C221.8221302 942.23568436 209.57915495 935.23271743 197.37109375 928.1640625 C195.65974243 927.17394165 195.65974243 927.17394165 193.91381836 926.16381836 C191.71431416 924.89048742 189.51582831 923.61539497 187.31860352 922.33813477 C181.95888925 919.23425361 176.56937638 916.20666169 171.11132812 913.27856445 C169.96088013 912.66084671 168.81043213 912.04312897 167.62512207 911.4066925 C166.75883179 910.94248398 165.8925415 910.47827545 165 910 C165.00666183 911.11847824 165.01332367 912.23695648 165.02018738 913.389328 C165.08147691 924.02252739 165.12619933 934.65569011 165.15543652 945.28902721 C165.17097378 950.753389 165.19198878 956.21760617 165.22631836 961.68188477 C165.25934409 966.97282101 165.27694228 972.26361975 165.28463173 977.55465126 C165.29009886 979.55527213 165.30076971 981.55588703 165.31719017 983.55644798 C165.53498132 1011.23689615 162.48691662 1041.05656265 142.19140625 1061.8671875 C141.10666016 1062.92292969 141.10666016 1062.92292969 140 1064 C139.41089844 1064.62132812 138.82179688 1065.24265625 138.21484375 1065.8828125 C116.58637264 1087.0834677 82.73239773 1086.45762872 54.74279643 1086.38540266 C50.47013084 1086.377731 46.19749748 1086.38759647 41.92483658 1086.39513266 C34.4503834 1086.4059272 26.97599533 1086.40566408 19.50153923 1086.39799118 C8.38644107 1086.38661217 -2.72860249 1086.39246132 -13.84370032 1086.4016161 C-33.69912455 1086.4173917 -53.55451978 1086.41605273 -73.40994675 1086.40737936 C-90.78661233 1086.39982626 -108.16326728 1086.39786559 -125.53993416 1086.4014473 C-127.27034147 1086.40179103 -127.27034147 1086.40179103 -129.03570651 1086.40214171 C-133.71883029 1086.40307576 -138.40195406 1086.40403096 -143.08507782 1086.405021 C-186.99810683 1086.41419376 -230.91111739 1086.40588444 -274.82414355 1086.38973031 C-313.81774946 1086.37549492 -352.81132598 1086.37676708 -391.80493164 1086.39111328 C-435.63724804 1086.40718589 -479.46954813 1086.41354223 -523.30186707 1086.40427649 C-527.9766614 1086.40331437 -532.65145574 1086.40237585 -537.32625008 1086.4014473 C-539.05276899 1086.40109145 -539.05276899 1086.40109145 -540.81416707 1086.40072841 C-558.17701854 1086.3973195 -575.53985822 1086.40130031 -592.90270805 1086.40888596 C-612.65064693 1086.41747073 -632.39855233 1086.41530435 -652.14648705 1086.39904372 C-663.19154557 1086.39024852 -674.23653153 1086.38964007 -685.28158813 1086.40098225 C-692.66753263 1086.40772882 -700.05341919 1086.40348772 -707.43935513 1086.39046794 C-711.64200582 1086.38336002 -715.84451281 1086.38083179 -720.04715877 1086.39168589 C-750.42542054 1086.46437642 -782.73403418 1085.61138572 -806.02441406 1063.21948242 C-827.59930179 1041.37698165 -830.15840315 1014.64500621 -830.13371277 985.51268005 C-830.13558258 983.42061591 -830.13788396 981.32855212 -830.14057809 979.23648888 C-830.14668159 973.50408929 -830.1465642 967.77170432 -830.14538372 962.03930223 C-830.14517934 955.85027046 -830.15070201 949.66124334 -830.15544128 943.47221375 C-830.16374063 931.35239218 -830.16650879 919.2325768 -830.16705366 907.11275315 C-830.1675138 897.25809615 -830.16957523 887.40344074 -830.17275429 877.54878426 C-830.17365188 874.70863996 -830.1745417 871.86849566 -830.17542917 869.02835137 C-830.17565021 868.3222104 -830.17587126 867.61606944 -830.17609901 866.88853027 C-830.18225071 847.03376977 -830.18619983 827.17900981 -830.18575573 807.32424831 C-830.18574015 806.57613541 -830.18572457 805.82802251 -830.18570852 805.05723951 C-830.18562542 801.2657949 -830.18552638 797.47435028 -830.18542381 793.68290567 C-830.18540387 792.92995961 -830.18538392 792.17701355 -830.18536337 791.40125094 C-830.18532294 789.87861062 -830.18528114 788.35597031 -830.18523798 786.83333 C-830.18462549 763.1537731 -830.19212797 739.47423053 -830.20581055 715.79467773 C-830.22118977 689.16810374 -830.22977565 662.54153916 -830.22884732 635.91496044 C-830.2287727 633.07261566 -830.22872399 630.23027088 -830.22869301 627.3879261 C-830.22868135 626.68811078 -830.2286697 625.98829545 -830.22865769 625.2672736 C-830.22862699 614.03253458 -830.23499774 602.79780806 -830.24362527 591.56307276 C-830.25212533 580.26008377 -830.25290261 568.95711789 -830.24651595 557.65412568 C-830.2432572 551.53752303 -830.24317075 545.4209654 -830.2518692 539.30436707 C-830.25976369 533.69520473 -830.25827278 528.0861229 -830.24958507 522.47696245 C-830.24805655 520.45746852 -830.24984155 518.4379685 -830.25544515 516.41848176 C-830.2799376 506.95827029 -830.13784525 497.59645226 -829.12126637 488.18351841 C-829.04532219 487.47658303 -828.96937802 486.76964765 -828.89113251 486.04128998 C-826.4876865 466.29265791 -816.90532618 448.35810952 -801.875 435.3125 C-784.71323371 421.98829534 -765.53207579 416.98536366 -744.06640625 416.68359375 C-742.83333237 416.66281265 -741.60025848 416.64203156 -740.32981873 416.62062073 C-736.40743352 416.55545977 -732.48498378 416.49639615 -728.5625 416.4375 C-725.89646899 416.39477748 -723.23046317 416.35066768 -720.56445312 416.30664062 C-714.04303612 416.19981278 -707.52155553 416.09798537 -701 416 C-701.54459869 415.46138336 -702.08919739 414.92276672 -702.65029907 414.36782837 C-703.72566422 413.29944229 -703.72566422 413.29944229 -704.82275391 412.20947266 C-705.5323526 411.50585602 -706.24195129 410.80223938 -706.97305298 410.07730103 C-709.65603799 407.32766453 -712.0414935 404.4218838 -714.375 401.375 C-714.83849854 400.77437744 -715.30199707 400.17375488 -715.77954102 399.55493164 C-717.19489039 397.7096088 -718.59834324 395.85573566 -720 394 C-720.42039551 393.45102051 -720.84079102 392.90204102 -721.27392578 392.33642578 C-742.96167654 363.8814769 -757.69922 329.58223457 -762 294 C-762.0928125 293.27103516 -762.185625 292.54207031 -762.28125 291.79101562 C-768.11339071 241.09304957 -754.00942446 187.77248882 -723 147.125 C-718.38069383 141.31620425 -713.49321727 135.8006792 -708.36914062 130.43652344 C-707.04194932 129.04401387 -705.7316017 127.63551092 -704.421875 126.2265625 C-676.66950391 97.22782744 -635.99063258 79.85097871 -597 73 C-595.73027344 72.773125 -594.46054687 72.54625 -593.15234375 72.3125 C-542.09450664 64.8330203 -488.05314224 78.04943446 -446.375 108.4453125 C-435.19119602 116.83316548 -424.83132712 126.07366721 -415 136 C-414.74009277 135.33395752 -414.48018555 134.66791504 -414.21240234 133.98168945 C-402.02023619 102.93579432 -388.22737377 72.73496721 -368 46 C-367.57928223 45.43651855 -367.15856445 44.87303711 -366.72509766 44.29248047 C-359.45018439 34.58439441 -351.40967012 25.73229174 -343 17 C-342.2471875 16.2059375 -341.494375 15.411875 -340.71875 14.59375 C-335.5385953 9.24375416 -329.83457526 4.61552471 -324 0 C-322.98808594 -0.81726562 -321.97617187 -1.63453125 -320.93359375 -2.4765625 C-313.04690381 -8.77515598 -304.81296825 -14.09262667 -296 -19 C-294.75065674 -19.70044434 -294.75065674 -19.70044434 -293.47607422 -20.41503906 C-207.1050422 -68.39026401 -85.89901729 -66.06008031 0 0 Z M-308 58 C-308.80179688 58.76054688 -309.60359375 59.52109375 -310.4296875 60.3046875 C-348.06108627 96.89438665 -369.49744642 149.88870999 -371 202 C-371.69452294 257.90909629 -351.2758739 310.30017532 -313 351 C-312.4755127 351.55848633 -311.95102539 352.11697266 -311.41064453 352.69238281 C-293.30369936 371.81241183 -271.90249906 386.96951306 -248 398 C-246.86304688 398.53238281 -245.72609375 399.06476563 -244.5546875 399.61328125 C-195.97408926 421.42382826 -140.2234048 422.13241938 -90.41455078 404.06201172 C-67.4912197 395.3407365 -46.5452472 383.04932974 -28 367 C-27.20722656 366.31808594 -26.41445313 365.63617188 -25.59765625 364.93359375 C-23.02097019 362.66594298 -20.50322651 360.34857314 -18 358 C-17.21302734 357.26402588 -17.21302734 357.26402588 -16.41015625 356.51318359 C-6.81415138 347.46290994 1.33316141 337.72244433 9 327 C9.45358887 326.36980957 9.90717773 325.73961914 10.37451172 325.09033203 C42.19673593 280.44900967 52.92658171 224.6878149 44 171 C35.97113731 127.93195636 15.87528574 91.662696 -14 60 C-14.80179688 59.1440625 -15.60359375 58.288125 -16.4296875 57.40625 C-22.55256098 51.06255158 -29.18819128 45.62499738 -36.22070312 40.33935547 C-37.36511273 39.47790773 -38.50486501 38.61021894 -39.63867188 37.73486328 C-67.56847232 16.18926141 -102.15242011 3.41216306 -137 -1 C-137.72968994 -1.0935376 -138.45937988 -1.1870752 -139.21118164 -1.28344727 C-202.4344482 -8.51659001 -262.54039539 14.61262808 -308 58 Z M-598 126 C-598.75684082 126.18804199 -599.51368164 126.37608398 -600.29345703 126.56982422 C-626.54280501 133.20207154 -648.70801286 146.15536328 -668 165 C-668.84820313 165.78632813 -669.69640625 166.57265625 -670.5703125 167.3828125 C-696.44826475 191.96281103 -710.97535479 228.29313358 -712.203125 263.6484375 C-712.77574636 298.61137623 -702.3332006 332.81647707 -680 360 C-679.53835449 360.56702637 -679.07670898 361.13405273 -678.60107422 361.71826172 C-653.93289131 391.87188022 -619.76778481 411.17148404 -581 416 C-563.18145528 416.89942525 -545.24363117 416.99848475 -528 412 C-527.2373584 411.78569336 -526.4747168 411.57138672 -525.68896484 411.35058594 C-495.58212935 402.69463449 -467.90708463 384.02015263 -449 359 C-448.60071289 358.48099121 -448.20142578 357.96198242 -447.79003906 357.42724609 C-424.49688918 326.99704599 -413.96796942 288.35086765 -418.82250977 250.24584961 C-421.20463223 233.95659344 -425.80057118 218.79329002 -433 204 C-433.47179687 203.02675781 -433.94359375 202.05351562 -434.4296875 201.05078125 C-451.83856915 167.36410347 -482.5875098 142.04768562 -518.20507812 129.88867188 C-543.24145451 121.92811894 -572.34059535 119.22146005 -598 126 Z M-382 352 C-382.87612768 353.08495758 -383.70704865 354.20643972 -384.51953125 355.33984375 C-385.30179077 356.42664429 -385.30179077 356.42664429 -386.09985352 357.53540039 C-386.66502686 358.32809326 -387.2302002 359.12078613 -387.8125 359.9375 C-388.39636475 360.7514624 -388.98022949 361.5654248 -389.58178711 362.40405273 C-394.92366169 369.8627776 -400.21690883 377.35580727 -405.49414062 384.86035156 C-407.57727617 387.8202413 -409.66596079 390.77619754 -411.75463867 393.73217773 C-413.73273592 396.53238968 -415.70835167 399.33434829 -417.68408203 402.13623047 C-418.88976982 403.84387808 -420.09900454 405.54901994 -421.30859375 407.25390625 C-422.26958984 408.61322266 -422.26958984 408.61322266 -423.25 410 C-423.79140625 410.763125 -424.3328125 411.52625 -424.890625 412.3125 C-426.09155538 413.80268446 -426.09155538 413.80268446 -426 415 C-392.34 415 -358.68 415 -324 415 C-326.48396327 410.86006122 -328.36638737 408.43976121 -331.75 405.1875 C-335.42474917 401.6456427 -338.81107798 397.96225416 -342.14794922 394.1081543 C-345.23751364 390.59136168 -348.46581571 387.20788127 -351.6875 383.8125 C-356.62763239 378.58395956 -361.55897235 373.34863726 -366.4375 368.0625 C-366.91638672 367.54381348 -367.39527344 367.02512695 -367.88867188 366.49072266 C-371.76232388 362.28262566 -375.57124905 358.01925108 -379.35546875 353.73046875 C-379.89816406 353.15941406 -380.44085938 352.58835937 -381 352 C-381.33 352 -381.66 352 -382 352 Z M-338.54826641 468.0064497 C-400.75769129 468.05944271 -462.96706287 468.12761295 -525.17641354 468.23892975 C-528.75590031 468.24532277 -532.33538708 468.25171387 -535.91487386 468.25809908 C-538.2905537 468.26233871 -540.66623351 468.2665889 -543.04191331 468.2708497 C-560.80331737 468.30253827 -578.56472018 468.32627367 -596.32614136 468.34588623 C-616.54221419 468.36825617 -636.75823773 468.40122764 -656.97426838 468.44850093 C-668.31482768 468.47473559 -679.65533125 468.49283753 -690.99591938 468.49938178 C-698.57483031 468.50459917 -706.1536676 468.52067627 -713.73253896 468.5456782 C-718.05715445 468.55964572 -722.38163827 468.56886064 -726.70627773 468.56500602 C-730.641098 468.56160142 -734.57563339 468.57192285 -738.51039524 468.59323502 C-739.92608146 468.59849583 -741.34179735 468.59874613 -742.75748324 468.59339576 C-753.05034392 468.55842407 -762.30526152 469.43663511 -770 477 C-775.78090091 484.99844227 -777.27757186 493.53204818 -777.40839767 503.17698669 C-777.42736667 504.0565272 -777.44633566 504.93606771 -777.46587947 505.84226096 C-777.52527018 508.74036852 -777.57061013 511.63849076 -777.6149292 514.53686523 C-777.65254671 516.60162914 -777.6904943 518.66638706 -777.72875285 520.73113918 C-778.10010667 541.88389891 -778.15693656 563.03717625 -778.16004276 584.19265318 C-778.16194276 589.80089382 -778.1695108 595.40912789 -778.17617798 601.0173645 C-778.18954703 613.17634873 -778.1957472 625.33532958 -778.20018864 637.49431992 C-778.20297892 645.1053143 -778.20721996 652.71630747 -778.21169281 660.32730103 C-778.2238402 681.47307766 -778.23419452 702.61885329 -778.2375679 723.76463318 C-778.23778951 725.12109679 -778.2380113 726.4775604 -778.23823325 727.83402401 C-778.23845387 729.19325324 -778.23867436 730.55248247 -778.2388947 731.91171169 C-778.23933719 734.63743019 -778.23978433 737.36314869 -778.24023438 740.08886719 C-778.24034377 740.76464112 -778.24045316 741.44041504 -778.24056586 742.13666697 C-778.24421142 764.13924082 -778.26021172 786.14178205 -778.28342474 808.14434339 C-778.30803702 831.51635547 -778.32173398 854.88834362 -778.32293582 878.26037121 C-778.32385057 890.96202079 -778.32955568 903.66362724 -778.34775543 916.36526489 C-778.36315775 927.1498696 -778.36827473 937.93441771 -778.36001733 948.71903133 C-778.35611607 954.21365114 -778.35701624 959.70815689 -778.37107468 965.2027626 C-778.38383902 970.23734387 -778.38259406 975.27172563 -778.37048396 980.30630672 C-778.36853184 982.12078314 -778.37158285 983.93527383 -778.38032833 985.74973023 C-778.68365369 1006.80646616 -778.68365369 1006.80646616 -769.24609375 1024.86328125 C-757.95167129 1035.53883124 -742.4192387 1035.30588913 -727.64606476 1035.25168228 C-726.23810035 1035.25377349 -724.83013703 1035.25673963 -723.42217606 1035.26049101 C-719.57339857 1035.26823413 -715.72472227 1035.26364304 -711.87594654 1035.25693511 C-707.68104667 1035.2518415 -703.48616178 1035.25838952 -699.29126406 1035.26342177 C-691.94577457 1035.27063308 -684.60031451 1035.27043343 -677.25482368 1035.26532745 C-666.33172628 1035.25775529 -655.40865365 1035.26163372 -644.48555641 1035.26774407 C-624.97570475 1035.2782717 -605.46586621 1035.27736429 -585.95601331 1035.27158624 C-568.88258514 1035.26655461 -551.80916178 1035.26524198 -534.73573303 1035.26763153 C-533.60309526 1035.2677843 -532.47045748 1035.26793707 -531.30349735 1035.26809447 C-526.70572072 1035.26871715 -522.10794409 1035.26935395 -517.51016747 1035.270014 C-474.38184677 1035.27613163 -431.25353441 1035.27058565 -388.125215 1035.2598202 C-349.81052298 1035.25032904 -311.49584425 1035.2511783 -273.18115234 1035.26074219 C-230.13157494 1035.27145206 -187.08200491 1035.27569777 -144.03242636 1035.26951766 C-139.4430399 1035.26887623 -134.85365343 1035.26825055 -130.26426697 1035.26763153 C-129.13424773 1035.26747338 -128.00422849 1035.26731522 -126.83996624 1035.26715227 C-109.77750985 1035.26487758 -92.7150588 1035.26753741 -75.65260315 1035.27259064 C-56.25132553 1035.27830789 -36.85006306 1035.27688216 -17.44878733 1035.26602915 C-6.59135812 1035.26015585 4.26603827 1035.25977431 15.12346663 1035.2673215 C22.37685861 1035.27180731 29.63022429 1035.26901322 36.88361237 1035.26031196 C41.01554438 1035.25555694 45.14741122 1035.25392249 49.27934116 1035.26112393 C53.04365433 1035.26761767 56.80784494 1035.26479225 60.5721493 1035.2547626 C62.55243727 1035.25182134 64.53273255 1035.25860499 66.51300937 1035.26587117 C79.36721733 1035.21223 91.60947331 1034.03431602 102.8125 1027.3125 C111.46833117 1018.1620499 113.15857117 1006.38055523 113.13142776 994.28261948 C113.1334804 993.42520942 113.13553303 992.56779936 113.13764787 991.68440717 C113.1433048 988.80975222 113.14186223 985.93514537 113.14044189 983.06048584 C113.14302627 980.97925933 113.14603963 978.89803331 113.1494453 976.81680799 C113.15750986 971.09606293 113.15930456 965.37533042 113.16004276 959.65458035 C113.16189423 953.48537945 113.16944197 947.31618505 113.17617798 941.14698792 C113.19046525 926.95413568 113.19628698 912.76128758 113.20086992 898.56842989 C113.20320714 891.55315125 113.2068099 884.53787343 113.2105653 877.52259543 C113.22339859 853.50291224 113.23411862 829.48322949 113.2375679 805.46354294 C113.23778953 803.95634026 113.23801132 802.44913758 113.23823325 800.9419349 C113.23845389 799.43112482 113.23867437 797.92031473 113.2388947 796.40950465 C113.23933725 793.37863461 113.23978437 790.34776457 113.24023438 787.31689453 C113.24034377 786.56541752 113.24045316 785.81394052 113.24056586 785.03969148 C113.24419695 760.66993293 113.2601201 736.30020411 113.28342474 711.93045695 C113.30802605 686.15761081 113.32174085 660.38478167 113.32293582 634.61192346 C113.32310727 631.78228012 113.3233227 628.9526368 113.32357025 626.12299347 C113.3236539 625.07790771 113.3236539 625.07790771 113.32373925 624.01170911 C113.32488933 612.80511424 113.33590754 601.59854993 113.35045731 590.39196537 C113.36483032 579.12669352 113.3678024 567.86146024 113.36001733 556.5961782 C113.35610807 550.49462553 113.35705411 544.39317558 113.37107468 538.29163551 C113.38379646 532.70423551 113.38263107 527.1170156 113.37048396 521.52961591 C113.36852402 519.5101256 113.37161911 517.49062261 113.38032833 515.47115013 C113.43695523 501.45116094 113.32093759 487.29747794 103.40234375 476.21484375 C92.14572485 465.77875288 74.96241785 467.8473857 60.63600159 467.87301636 C59.25110348 467.87185785 57.86620569 467.87026473 56.48130852 467.86828321 C52.70498461 467.86413843 48.92868633 467.86615184 45.15236238 467.86926664 C41.03082787 467.87156941 36.90929731 467.8680808 32.7877636 467.86538982 C24.62132349 467.86099311 16.45489246 467.86204713 8.28845201 467.86488028 C1.48874365 467.86709327 -5.31096157 467.86702305 -12.11067009 467.86549187 C-13.09467515 467.86527125 -14.07868021 467.86505063 -15.0925036 467.86482333 C-17.10004145 467.86436478 -19.10757931 467.86390245 -21.11511716 467.86343641 C-44.84158557 467.85829732 -68.56804751 467.86424672 -92.29451467 467.87191462 C-102.4066993 467.87513095 -112.51888402 467.87727567 -122.63106894 467.87932104 C-189.58022127 467.89288007 -256.52933981 467.93471665 -323.47846699 467.99342823 C-328.50173341 467.99783103 -333.52499988 468.00217066 -338.54826641 468.0064497 Z M408.53344727 513.02246094 C401.76210716 517.61823317 394.74412787 521.71986448 387.625 525.75 C387.03086304 526.08636475 386.43672607 526.42272949 385.82458496 526.76928711 C382.7722595 528.49522012 379.71725132 530.21634122 376.66113281 531.93554688 C371.33894892 534.93229908 366.03979967 537.96928313 360.73937988 541.00430298 C357.82979613 542.66987581 354.91876139 544.33290833 352.0078125 545.99609375 C351.43067505 546.32590744 350.8535376 546.65572113 350.25891113 546.99552917 C346.73945092 549.00666245 343.21930449 551.01658941 339.69866943 553.02566528 C327.7842376 559.82478012 315.87821678 566.6377118 304 573.5 C294.98885669 578.70445797 285.97052162 583.89611364 276.9375 589.0625 C276.35295044 589.39683044 275.76840088 589.73116089 275.1661377 590.07562256 C265.85985797 595.39492049 256.51091877 600.63559835 247.14770508 605.85400391 C239.09714525 610.35414231 231.13371921 614.99271065 223.18334961 619.66699219 C214.38012172 624.82284873 205.47105038 629.77870908 196.52197266 634.67553711 C190.96128159 637.73336393 185.44744456 640.85831388 180.01171875 644.1328125 C178.97877686 644.7530127 177.94583496 645.37321289 176.8815918 646.01220703 C171.70835167 649.58083544 167.01549081 653.95352756 165 660 C164.89839788 662.40229421 164.8521871 664.77585843 164.85282898 667.1783905 C164.84915229 667.91443223 164.8454756 668.65047395 164.8416875 669.40881997 C164.83064961 671.88217281 164.82680664 674.35548364 164.82299805 676.82885742 C164.81673343 678.5995497 164.81008664 680.37024066 164.80308533 682.14093018 C164.78204096 687.96243371 164.77168209 693.78393753 164.76171875 699.60546875 C164.75767123 701.60966824 164.75355431 703.61386758 164.74936867 705.61806679 C164.7303156 715.03456532 164.71608522 724.451056 164.7077567 733.8675701 C164.69798562 744.73561938 164.67166991 755.60346491 164.63125581 766.4714424 C164.60108832 774.87240941 164.58628719 783.27331804 164.58297569 791.67433816 C164.58062577 796.69144846 164.57167299 801.70834113 164.54651451 806.7253933 C164.523218 811.44748737 164.51900694 816.16922076 164.52927589 820.89135742 C164.52977099 822.62151095 164.5234582 824.35168233 164.50971985 826.08178139 C164.38063261 839.63638277 164.38063261 839.63638277 170.91772461 851.28076172 C176.99093233 856.54348412 183.47966012 860.36518783 190.5625 864.125 C192.98473674 865.43597038 195.40225429 866.75556106 197.8203125 868.07421875 C198.42739548 868.40380081 199.03447845 868.73338287 199.65995789 869.07295227 C205.48823963 872.24393243 211.22000788 875.57118017 216.9375 878.9375 C225.55041286 883.99603664 234.19722553 888.99123555 242.875 893.9375 C255.19776609 900.96379989 267.49138883 908.03942785 279.7734375 915.13671875 C283.03524007 917.0203505 286.29861844 918.90122321 289.5625 920.78125 C300.01713113 926.80439832 310.46035574 932.84544287 320.875 938.9375 C333.01294686 946.03351504 345.22024595 953.00622976 357.43554688 959.96777344 C362.71221548 962.97543848 367.98490786 965.99006102 373.25787354 969.00421143 C376.15352181 970.65934584 379.04943006 972.31402533 381.9453125 973.96875 C383.10970178 974.63411239 384.27408979 975.29947698 385.43847656 975.96484375 C386.02133423 976.29790527 386.60419189 976.6309668 387.20471191 976.97412109 C392.76147461 980.14941406 398.3182373 983.32470703 403.875 986.5 C404.98488281 987.13421875 406.09476563 987.7684375 407.23828125 988.421875 C408.84896484 989.34226562 408.84896484 989.34226562 410.4921875 990.28125 C412.08015137 991.18568848 412.08015137 991.18568848 413.70019531 992.10839844 C416.03005053 993.44397984 418.35134871 994.78973249 420.66699219 996.14941406 C421.28220734 996.50789429 421.89742249 996.86637451 422.53128052 997.23571777 C424.24531092 998.23493425 425.95602104 999.23984003 427.66650391 1000.24511719 C440.4319894 1006.96536838 454.99320393 1008.45330981 469 1011 C469 840.39 469 669.78 469 494 C443.58166226 494 428.56185564 499.26575264 408.53344727 513.02246094 Z " fill="#2D92D9" transform="translate(842,62)"/>
<path d="M0 0 C10.72862086 -0.00567486 21.45723061 -0.01538061 32.18584531 -0.02811974 C46.19710378 -0.04474313 60.20833953 -0.05441094 74.2196086 -0.0523076 C81.09684489 -0.05142482 87.97404559 -0.05359973 94.85127437 -0.06442832 C101.22429876 -0.07443455 107.5972707 -0.07426164 113.97029936 -0.06703078 C116.29193617 -0.06600939 118.6135774 -0.06837938 120.93520653 -0.0744363 C124.09848759 -0.0821547 127.26152122 -0.07751075 130.42479694 -0.0697956 C131.3337636 -0.07493899 132.24273026 -0.08008237 133.17924136 -0.08538162 C143.67658418 -0.02887317 152.33776876 1.89459834 159.93311298 9.48994256 C165.76344016 18.77527844 165.77026185 28.81351934 165.75432575 39.46755791 C165.7565913 40.58552544 165.75885686 41.70349296 165.76119107 42.85533828 C165.76750755 46.59137907 165.76670322 50.32738336 165.76587665 54.06342889 C165.76886959 56.74623563 165.77224429 59.42903955 165.77605426 62.11184502 C165.78434321 68.63697782 165.7871083 75.16210159 165.78766664 81.68723921 C165.78814261 86.99349632 165.79020137 92.29975046 165.79336727 97.60600663 C165.80216881 112.66550344 165.80678739 127.72499314 165.80603679 142.78449254 C165.80597686 144.00102794 165.80597686 144.00102794 165.80591571 145.24213982 C165.80587483 146.05415884 165.80583395 146.86617786 165.80579183 147.70280352 C165.80538544 160.86072387 165.81495466 174.01861559 165.82905408 187.17652766 C165.84343244 200.70195451 165.85032347 214.2273674 165.8494603 227.75280208 C165.84912885 235.34029742 165.85185319 242.92776273 165.86263835 250.51525117 C165.87176254 256.97536602 165.87390286 263.43543725 165.86712893 269.89555578 C165.86387347 273.18806746 165.86486777 276.48047853 165.87248218 279.77298547 C165.88021911 283.35085654 165.87554586 286.92850977 165.86785114 290.50637627 C165.8729947 291.53499789 165.87813826 292.56361951 165.88343769 293.62341148 C165.82901951 305.11833825 164.7137047 315.08435084 156.30811298 323.48994256 C148.53579152 328.37023743 140.42214476 329.30094234 131.34003055 329.30607701 C130.63795087 329.30783005 129.93587119 329.30958309 129.21251637 329.31138925 C126.86624913 329.31603123 124.52004436 329.31358841 122.1737746 329.31115533 C120.47202977 329.31302421 118.77028537 329.31532522 117.06854165 329.31802065 C112.39673896 329.32413554 107.72495417 329.32400542 103.05314839 329.32282627 C98.012793 329.32262219 92.97244335 329.32814178 87.93209064 329.33288384 C78.05865705 329.3411893 68.18522943 329.34393864 58.31179264 329.34449622 C50.28573663 329.34497144 42.25968259 329.34702648 34.2336272 329.35019685 C11.4763063 329.3590032 -11.28100988 329.36361626 -34.03833249 329.36286637 C-35.26511389 329.36282642 -36.49189528 329.36278646 -37.75585186 329.36274529 C-39.59827183 329.36268397 -39.59827183 329.36268397 -41.4779124 329.36262141 C-61.3837125 329.36221497 -81.28949369 329.3717842 -101.19528833 329.38588366 C-121.63635872 329.40024796 -142.07741988 329.40715381 -162.51849544 329.40628988 C-173.99380412 329.40595793 -185.46909296 329.40870436 -196.94439709 329.41946793 C-206.71480287 329.42857364 -216.48517984 329.4307476 -226.25558802 329.42395851 C-231.23917534 329.42069365 -236.22270736 329.42063542 -241.20628941 329.42931176 C-245.77222969 329.43717913 -250.33807085 329.43574286 -254.90400872 329.42702763 C-256.55203318 329.42549317 -258.20006505 329.42730676 -259.84808078 329.4328877 C-286.86241452 329.51828066 -286.86241452 329.51828066 -295.69188702 320.92744256 C-301.29355936 311.79879134 -301.52861034 302.40730214 -301.51309979 291.96961785 C-301.51536535 290.8484212 -301.5176309 289.72722455 -301.51996511 288.57205225 C-301.52628983 284.81908591 -301.52547672 281.06615582 -301.52465069 277.31318475 C-301.52764314 274.62067341 -301.53101766 271.9281649 -301.53482831 269.23565484 C-301.54312255 262.68297936 -301.5458826 256.13031288 -301.54644068 249.57763258 C-301.54691645 244.248945 -301.54897425 238.92026037 -301.55214131 233.59157372 C-301.56094476 218.47083124 -301.5655612 203.35009585 -301.56481083 188.22935078 C-301.56477088 187.41477478 -301.56473092 186.60019878 -301.56468976 185.76093865 C-301.56464887 184.94536352 -301.56460799 184.12978838 -301.56456587 183.28949884 C-301.56415956 170.07654949 -301.57372631 156.86362866 -301.58782812 143.65068755 C-301.60220648 130.07105178 -301.60909749 116.4914299 -301.60823435 102.91178633 C-301.60790287 95.29297701 -301.61062839 87.67419758 -301.6214124 80.05539513 C-301.63053665 73.56780774 -301.6326769 67.08026379 -301.62590297 60.59267274 C-301.62264737 57.2859913 -301.62364217 53.97941003 -301.63125622 50.67273331 C-301.63899273 47.07948233 -301.63432015 43.48644827 -301.62662518 39.89320184 C-301.63176874 38.86000715 -301.63691231 37.82681246 -301.64221174 36.76230884 C-301.59250534 26.218351 -300.90235057 14.70040611 -293.06688702 6.86494256 C-286.95647047 3.02816937 -280.98502365 1.07943689 -273.80428326 1.01922417 C-272.90494344 1.00943441 -272.00560362 0.99964465 -271.07901108 0.98955823 C-270.09451698 0.98380371 -269.11002287 0.97804919 -268.09569561 0.97212029 C-266.50563907 0.95728364 -266.50563907 0.95728364 -264.88346016 0.94214726 C-261.26493811 0.91002789 -257.64640698 0.88535015 -254.02782452 0.86103631 C-252.04349613 0.84547345 -250.05916776 0.82990472 -248.07484192 0.81402016 C-239.09968382 0.74258572 -230.12445358 0.68517789 -221.14918387 0.62987376 C-218.76388317 0.61500177 -216.37858633 0.59961987 -213.99329007 0.58405495 C-142.66313173 0.11919216 -71.33145179 0.03743992 0 0 Z M-248.37938702 54.17744256 C-248.37938702 127.10744256 -248.37938702 200.03744256 -248.37938702 275.17744256 C-129.24938702 275.17744256 -10.11938702 275.17744256 112.62061298 275.17744256 C112.62061298 202.24744256 112.62061298 129.31744256 112.62061298 54.17744256 C-6.50938702 54.17744256 -125.63938702 54.17744256 -248.37938702 54.17744256 Z " fill="#2D92D9" transform="translate(498.37938702106476,647.8225574418902)"/>
<path d="M0 0 C1.11435686 0.90425139 2.21823648 1.82153398 3.3125 2.75 C4.53259766 3.67619141 4.53259766 3.67619141 5.77734375 4.62109375 C15.3672996 12.67429242 23.24893122 27.61366066 25.1015625 40.046875 C26.85086346 62.46384287 21.68301331 83.55433323 7.5625 101.5 C-4.35130734 114.45390163 -22.0010113 121.99688105 -39.37890625 122.953125 C-59.17669159 123.192856 -78.1272704 117.75022077 -92.6875 103.75 C-105.47493713 91.26702565 -112.7182468 75.3249066 -112.9375 57.4375 C-112.88591163 38.16588099 -107.80271059 19.37023476 -94.6875 4.75 C-69.48816977 -20.05352923 -27.69124888 -20.49465313 0 0 Z " fill="#2E92D9" transform="translate(884.6875,592.25)"/>
<path d="M0 0 C3.45691661 1.21527305 6.12689565 2.8991293 8.4375 5.8125 C9.58089237 10.25902588 9.40006924 13.86647048 7.875 18.1875 C5.55416594 21.6687511 3.78078081 23.17962405 0 25 C-4.29201426 25.67370241 -7.82433973 25.46004097 -11.875 23.875 C-14.71742079 21.36698165 -15.81158085 19.63128075 -17 16 C-17.19983433 11.01213516 -16.75217223 7.18891739 -14.0625 2.9375 C-9.91462691 -0.95898684 -5.44911895 -0.59459743 0 0 Z " fill="#FBFCFE" transform="translate(845,634)"/>
</svg>
