<?xml version="1.0" encoding="UTF-8"?>
<svg version="1.1" xmlns="http://www.w3.org/2000/svg" width="249" height="204">
<path d="M0 0 C82.17 0 164.34 0 249 0 C249 67.32 249 134.64 249 204 C166.83 204 84.66 204 0 204 C0 136.68 0 69.36 0 0 Z " fill="#2D91D8" transform="translate(0,0)"/>
<path d="M0 0 C8.21097318 5.0123702 13.80986004 12.38229872 16.6171875 21.59765625 C18.4339886 32.66782567 17.03386366 42.2205932 10.6171875 51.59765625 C9.03806222 53.75212175 7.45499196 55.65174564 5.6171875 57.59765625 C6.42542969 57.63503906 7.23367187 57.67242187 8.06640625 57.7109375 C9.66935547 57.80955078 9.66935547 57.80955078 11.3046875 57.91015625 C12.88830078 57.99716797 12.88830078 57.99716797 14.50390625 58.0859375 C18.75059126 58.78394972 21.27045979 60.37070259 24.41796875 63.23828125 C26.26444828 66.87109439 25.93431024 70.33932216 25.8046875 74.34765625 C25.79115234 75.14042969 25.77761719 75.93320313 25.76367188 76.75 C25.72843973 78.69951189 25.67463571 80.64867251 25.6171875 82.59765625 C29.65587603 80.23186054 33.69436239 77.86572023 37.73266602 75.49926758 C39.10500701 74.69513752 40.47740213 73.89109983 41.84985352 73.0871582 C43.82843206 71.92814321 45.80681241 70.76879055 47.78515625 69.609375 C48.69795601 69.07481941 48.69795601 69.07481941 49.62919617 68.52946472 C52.2230937 67.00892739 54.79993298 65.48120852 57.3359375 63.86523438 C60.45819265 62.13035116 62.8904882 62.30290779 66.4296875 62.41015625 C68.17185547 62.45076172 68.17185547 62.45076172 69.94921875 62.4921875 C70.82964844 62.52699219 71.71007812 62.56179687 72.6171875 62.59765625 C74.11730148 65.59788421 73.75582352 68.67916299 73.74658203 71.96899414 C73.74921051 73.10819054 73.74921051 73.10819054 73.75189209 74.270401 C73.7563025 76.78706124 73.75337575 79.30365152 73.75 81.8203125 C73.7506732 83.56383783 73.75164336 85.30736306 73.75289917 87.05088806 C73.75437498 90.7068674 73.75222505 94.36282232 73.74755859 98.01879883 C73.74185715 102.71566488 73.74514367 107.41247384 73.75113106 112.10933781 C73.7547362 115.70971613 73.75359837 119.3100808 73.75100327 122.91045952 C73.75033409 124.64289799 73.75116211 126.37533769 73.75348282 128.10777473 C73.75600904 130.52378775 73.7521694 132.9397069 73.74658203 135.35571289 C73.74860626 136.07833313 73.75063049 136.80095337 73.75271606 137.54547119 C73.73145107 142.48339268 73.73145107 142.48339268 72.6171875 143.59765625 C61.71485153 145.94114903 53.87534188 140.50862258 44.99560547 135.05273438 C41.79105276 133.09224021 38.54399791 131.20797259 35.29760742 129.31787109 C32.06018868 127.428834 28.83844417 125.51410009 25.6171875 123.59765625 C25.70419922 125.33402344 25.70419922 125.33402344 25.79296875 127.10546875 C25.83989015 128.64449073 25.88538776 130.18355658 25.9296875 131.72265625 C25.9925293 132.86347656 25.9925293 132.86347656 26.05664062 134.02734375 C26.14558042 138.15415012 25.90928831 140.79762557 23.28515625 144.08984375 C19.8266667 147.34072266 17.52593462 147.7221701 12.96218872 147.73136902 C11.52802109 147.73776649 11.52802109 147.73776649 10.06488037 147.74429321 C9.01753723 147.74384003 7.97019409 147.74338684 6.89111328 147.74291992 C5.78679962 147.74627853 4.68248596 147.74963715 3.54470825 147.75309753 C-0.11603919 147.76261817 -3.77674094 147.76455122 -7.4375 147.765625 C-9.97714253 147.76883683 -12.51678487 147.77220084 -15.056427 147.77571106 C-20.38446557 147.78170513 -25.71248705 147.78359343 -31.04052734 147.78295898 C-37.19521049 147.78235839 -43.34980594 147.792907 -49.50446689 147.80870265 C-55.4284781 147.82336366 -61.35246256 147.82694678 -67.27649307 147.82634926 C-69.79550662 147.82753075 -72.3145208 147.83196193 -74.8335228 147.83968163 C-78.35507258 147.84946293 -81.8763959 147.84661067 -85.39794922 147.84057617 C-86.4412439 147.84619568 -87.48453857 147.85181519 -88.55944824 147.85760498 C-89.52119965 147.85341049 -90.48295105 147.849216 -91.47384644 147.84489441 C-92.30601622 147.84543918 -93.138186 147.84598394 -93.99557304 147.84654522 C-98.04492316 147.42436781 -100.71438484 146.23068163 -103.66197205 143.43920898 C-105.78114758 139.93990199 -105.95412111 137.1059745 -105.91625977 133.1328125 C-105.92487534 132.39884247 -105.93349091 131.66487244 -105.94236755 130.90866089 C-105.96499679 128.49212989 -105.95829544 126.07676135 -105.94921875 123.66015625 C-105.95445543 121.9753383 -105.96073207 120.29052329 -105.96800232 118.60571289 C-105.97840062 115.07847272 -105.97385302 111.55163612 -105.95922852 108.02441406 C-105.94203401 103.50805857 -105.9655461 98.99297451 -106.00071812 94.47676086 C-106.02269507 90.99881589 -106.02125014 87.52117509 -106.0129528 84.04318237 C-106.01213358 82.37823084 -106.01899158 80.71325691 -106.03372383 79.04837036 C-106.05117832 76.71895519 -106.03662406 74.39182395 -106.01391602 72.0625 C-106.02560822 71.37767548 -106.03730042 70.69285095 -106.04934692 69.98727417 C-105.97436058 66.199882 -105.44141531 64.66992884 -103.02427673 61.68896484 C-100.08208476 59.35956311 -98.2569135 58.77374192 -94.5703125 58.28515625 C-93.59449219 58.14464844 -92.61867188 58.00414062 -91.61328125 57.859375 C-90.87722656 57.77300781 -90.14117187 57.68664062 -89.3828125 57.59765625 C-89.9809375 56.91703125 -90.5790625 56.23640625 -91.1953125 55.53515625 C-96.88005688 47.90135666 -97.33989578 40.9944739 -96.3828125 31.59765625 C-94.4321607 24.35237814 -88.9250148 18.76345994 -82.6484375 14.92578125 C-78.85909964 13.38466298 -75.53676841 13.10152379 -71.5078125 13.16015625 C-70.44771973 13.16825317 -70.44771973 13.16825317 -69.36621094 13.17651367 C-61.68052026 13.40084221 -57.38245291 16.04575516 -51.3828125 20.59765625 C-50.85494141 19.6540625 -50.85494141 19.6540625 -50.31640625 18.69140625 C-39.50287727 -0.05580849 -21.04000855 -10.23490931 0 0 Z " fill="#E5E9EB" transform="translate(141.3828125,30.40234375)"/>
<path d="M0 0 C15.08996338 -0.04667809 30.17992117 -0.08196824 45.26994133 -0.10362434 C52.27617681 -0.11394599 59.28236749 -0.12802321 66.28857422 -0.15087891 C73.04476669 -0.17290853 79.80090289 -0.18455535 86.55713272 -0.18975449 C89.14003357 -0.19346155 91.72293174 -0.20070005 94.30581284 -0.21146011 C97.91210275 -0.22589163 101.51819777 -0.22798144 105.12451172 -0.22705078 C106.20200684 -0.23424133 107.27950195 -0.24143188 108.38964844 -0.24884033 C109.36843964 -0.246091 110.34723083 -0.24334167 111.35568237 -0.24050903 C112.63605283 -0.24327441 112.63605283 -0.24327441 113.94228935 -0.24609566 C116 0 116 0 118 2 C118.24723816 4.92248535 118.24723816 4.92248535 118.24291992 8.71289062 C118.24481827 9.4024736 118.24671661 10.09205658 118.24867249 10.80253601 C118.25238415 13.08722215 118.24167063 15.371592 118.23046875 17.65625 C118.22927703 19.24043744 118.22882377 20.8246256 118.2290802 22.40881348 C118.22751465 25.73108332 118.21921971 29.05324552 118.20581055 32.37548828 C118.1888206 36.63955842 118.18499618 40.90351015 118.18575573 45.16761017 C118.18548413 48.43948502 118.1800045 51.71133386 118.17275429 54.98320007 C118.16956633 56.55571801 118.16759992 58.1282389 118.16686058 59.70075989 C118.16469836 61.89626106 118.15595672 64.09163535 118.14526367 66.28710938 C118.14145187 67.53794312 118.13764008 68.78877686 118.13371277 70.07751465 C118 73 118 73 117 75 C114.14658214 75.95113929 112.36750325 76.12969433 109.4074707 76.14044189 C108.46529694 76.14615204 107.52312317 76.15186218 106.55239868 76.15774536 C105.52061493 76.15886322 104.48883118 76.15998108 103.42578125 76.16113281 C101.79375259 76.16858017 101.79375259 76.16858017 100.12875366 76.17617798 C96.52332939 76.19080464 92.91794908 76.19760143 89.3125 76.203125 C86.81290688 76.20887473 84.31331378 76.21463249 81.8137207 76.22039795 C77.24170248 76.22956465 72.66969692 76.23586527 68.09767056 76.2388947 C61.36580211 76.24337983 54.63413627 76.26095173 47.90232944 76.2898953 C42.07227928 76.31409299 36.24229694 76.32183776 30.41220093 76.32357025 C27.93060196 76.32660487 25.44900402 76.33466043 22.96743774 76.34775543 C19.50287334 76.36473688 16.03880743 76.36295523 12.57421875 76.35644531 C11.02654312 76.37026749 11.02654312 76.37026749 9.44760132 76.3843689 C8.50542755 76.37879974 7.56325378 76.37323059 6.5925293 76.36749268 C5.77326462 76.36895924 4.95399994 76.3704258 4.10990906 76.3719368 C1.4675543 75.90613996 0.58435415 75.13719933 -1 73 C-1.36749268 69.95726013 -1.36749268 69.95726013 -1.35644531 66.17358398 C-1.35848969 65.48385498 -1.36053406 64.79412598 -1.36264038 64.08349609 C-1.36564807 61.80409212 -1.34717362 59.52541171 -1.328125 57.24609375 C-1.32506743 55.66333699 -1.32319129 54.08057754 -1.32244873 52.49781799 C-1.31784588 49.1814646 -1.30341993 45.86535407 -1.28125 42.54907227 C-1.25294457 38.29287208 -1.24203616 34.03686303 -1.2375679 29.78057766 C-1.23341625 26.51298603 -1.22360128 23.24543324 -1.21169281 19.9778614 C-1.20598622 18.40813572 -1.2012288 16.8384063 -1.19742584 15.26867485 C-1.19057 13.07805661 -1.17694144 10.8875911 -1.16113281 8.69702148 C-1.15089081 6.82529518 -1.15089081 6.82529518 -1.14044189 4.91575623 C-1 2 -1 2 0 0 Z " fill="#2990D8" transform="translate(43,96)"/>
<path d="M0 0 C5.66362409 3.91265633 10.47682096 9.67446187 12.671875 16.30078125 C14.42559967 26.18375047 12.94802779 34.35838459 7.421875 42.6015625 C3.33618087 47.79039405 -2.45033394 51.19779973 -8.953125 52.4140625 C-17.70475335 53.24416275 -24.73662592 52.70944578 -31.953125 47.4140625 C-39.32664354 40.79551173 -42.91327624 34.51951342 -43.515625 24.6640625 C-43.28554838 16.75142749 -40.22073221 10.13715436 -35.01953125 4.2109375 C-25.10091445 -4.99230148 -11.96870568 -7.00130169 0 0 Z " fill="#2B91D8" transform="translate(138.953125,36.5859375)"/>
<path d="M0 0 C0 23.1 0 46.2 0 70 C-5.16373812 69.13937698 -7.24627855 68.57901206 -11.484375 66.05078125 C-12.50273437 65.44943359 -13.52109375 64.84808594 -14.5703125 64.22851562 C-15.61960938 63.59623047 -16.66890625 62.96394531 -17.75 62.3125 C-18.78382813 61.69955078 -19.81765625 61.08660156 -20.8828125 60.45507812 C-22.93478314 59.23655903 -24.98367371 58.01283669 -27.02929688 56.78369141 C-28.98967557 55.60662642 -30.95445626 54.43685805 -32.92382812 53.27490234 C-33.82037109 52.74461426 -34.71691406 52.21432617 -35.640625 51.66796875 C-36.43500977 51.20028076 -37.22939453 50.73259277 -38.04785156 50.25073242 C-40 49 -40 49 -42 47 C-42.51152612 42.89556329 -42.41679063 38.75767009 -42.4375 34.625 C-42.47037109 33.47515625 -42.50324219 32.3253125 -42.53710938 31.140625 C-42.59098249 22.73641958 -42.59098249 22.73641958 -40 19.5078125 C-39.01 19.01023437 -38.02 18.51265625 -37 18 C-35.68752294 17.23656986 -34.3764407 16.47073907 -33.06640625 15.703125 C-31.56774555 14.88058565 -30.06631068 14.06308566 -28.5625 13.25 C-21.67309551 9.49767742 -21.67309551 9.49767742 -14.8828125 5.5703125 C-13.94199829 5.0129541 -13.94199829 5.0129541 -12.98217773 4.44433594 C-11.28992298 3.43602743 -9.60373776 2.41755234 -7.91796875 1.3984375 C-5 0 -5 0 0 0 Z " fill="#2C91D8" transform="translate(209,99)"/>
<path d="M0 0 C16.5 0 33 0 50 0 C50 10.23 50 20.46 50 31 C33.5 31 17 31 0 31 C0 20.77 0 10.54 0 0 Z " fill="#3094D9" transform="translate(66,118)"/>
<path d="M0 0 C4.88093055 3.71240269 8.00680553 7.75713726 8.94140625 13.90234375 C9.19228019 20.31986099 8.58604154 25.86869202 4.5 31 C-1.34207348 36.31097589 -6.6114079 37.43026681 -14.421875 37.3359375 C-20.01263197 36.72577874 -23.27640718 34.30514268 -27.09765625 30.34375 C-30.88251739 25.36755374 -31.30292773 20.32635291 -31.046875 14.1953125 C-29.91356665 7.57355372 -26.47054974 3.64882734 -21.4375 -0.5625 C-14.99591082 -3.65446281 -6.21212626 -3.47737618 0 0 Z " fill="#2A91D8" transform="translate(81.5,52)"/>
<path d="M0 0 C1.73189575 -0.00945648 1.73189575 -0.00945648 3.4987793 -0.019104 C4.75086182 -0.01505554 6.00294434 -0.01100708 7.29296875 -0.00683594 C8.57276611 -0.00874939 9.85256348 -0.01066284 11.17114258 -0.01263428 C13.88139668 -0.01558475 16.59151902 -0.01129049 19.30175781 -0.00195312 C22.77896106 0.00944154 26.25585557 0.00288163 29.73304749 -0.00909805 C33.04471279 -0.01805519 36.35629466 -0.01178729 39.66796875 -0.00683594 C41.54609253 -0.01290863 41.54609253 -0.01290863 43.4621582 -0.019104 C44.61675537 -0.01279968 45.77135254 -0.00649536 46.9609375 0 C47.98082764 0.00159119 49.00071777 0.00318237 50.05151367 0.00482178 C52.48046875 0.25878906 52.48046875 0.25878906 54.48046875 2.25878906 C54.68045199 5.17628041 54.76021762 7.99680835 54.74609375 10.91503906 C54.74896393 12.20214783 54.74896393 12.20214783 54.75189209 13.51525879 C54.75325419 15.33097629 54.74955603 17.14670351 54.74121094 18.96240234 C54.73051166 21.74761756 54.74110528 24.53218775 54.75390625 27.31738281 C54.75258466 29.07910299 54.75002228 30.84082277 54.74609375 32.60253906 C54.75014221 33.43901978 54.75419067 34.27550049 54.75836182 35.1373291 C54.71038709 41.02887072 54.71038709 41.02887072 52.48046875 43.25878906 C50.05151367 43.51275635 50.05151367 43.51275635 46.9609375 43.51757812 C45.22904175 43.52703461 45.22904175 43.52703461 43.4621582 43.53668213 C42.21007568 43.53263367 40.95799316 43.52858521 39.66796875 43.52441406 C38.38817139 43.52632751 37.10837402 43.52824097 35.78979492 43.5302124 C33.07954082 43.53316288 30.36941848 43.52886862 27.65917969 43.51953125 C24.18197644 43.50813659 20.70508193 43.51469649 17.22789001 43.52667618 C13.91622471 43.53563331 10.60464284 43.52936542 7.29296875 43.52441406 C5.41484497 43.53048676 5.41484497 43.53048676 3.4987793 43.53668213 C2.34418213 43.53037781 1.18958496 43.52407349 0 43.51757812 C-1.01989014 43.51598694 -2.03978027 43.51439575 -3.09057617 43.51275635 C-5.51953125 43.25878906 -5.51953125 43.25878906 -7.51953125 41.25878906 C-7.71951449 38.34129771 -7.79928012 35.52076977 -7.78515625 32.60253906 C-7.7870697 31.74446655 -7.78898315 30.88639404 -7.79095459 30.00231934 C-7.79231669 28.18660184 -7.78861853 26.37087461 -7.78027344 24.55517578 C-7.76957416 21.76996056 -7.78016778 18.98539038 -7.79296875 16.20019531 C-7.79164716 14.43847513 -7.78908478 12.67675536 -7.78515625 10.91503906 C-7.78920471 10.07855835 -7.79325317 9.24207764 -7.79742432 8.38024902 C-7.74171887 1.53933591 -6.8250122 0.01064808 0 0 Z M-1.51953125 6.25878906 C-1.51953125 16.48878906 -1.51953125 26.71878906 -1.51953125 37.25878906 C14.98046875 37.25878906 31.48046875 37.25878906 48.48046875 37.25878906 C48.48046875 27.02878906 48.48046875 16.79878906 48.48046875 6.25878906 C31.98046875 6.25878906 15.48046875 6.25878906 -1.51953125 6.25878906 Z " fill="#E8EAEB" transform="translate(67.51953125,111.7412109375)"/>
<path d="M0 0 C2.12890625 0.41015625 2.12890625 0.41015625 4.69140625 1.91015625 C6.70532407 5.41262203 7.00446302 8.53159338 6.12890625 12.41015625 C4.06640625 15.41015625 4.06640625 15.41015625 1.12890625 17.41015625 C-2.37109375 18.03515625 -2.37109375 18.03515625 -5.87109375 17.41015625 C-8.80859375 15.34765625 -8.80859375 15.34765625 -10.87109375 12.41015625 C-11.52731612 8.32699482 -11.24891052 6.1822166 -9.43359375 2.47265625 C-6.17032224 -0.15387935 -4.10040419 -0.26345266 0 0 Z " fill="#E7EAEB" transform="translate(147.87109375,102.58984375)"/>
<path d="M0 0 C1.65 0 3.3 0 5 0 C5 23.1 5 46.2 5 70 C3.68 69.67 2.36 69.34 1 69 C1.99 68.505 1.99 68.505 3 68 C3 45.89 3 23.78 3 1 C1.35 1.33 -0.3 1.66 -2 2 C-1.34 1.34 -0.68 0.68 0 0 Z " fill="#359BDA" transform="translate(204,99)"/>
<path d="M0 0 C4.61651485 1.53883828 6.41265909 5.11898864 9 9 C4.38 9 -0.24 9 -5 9 C-3.44455189 5.88910379 -1.80979645 2.96148509 0 0 Z " fill="#1F8CD8" transform="translate(94,80)"/>
<path d="M0 0 C2.475 0.99 2.475 0.99 5 2 C4.01 2.33 3.02 2.66 2 3 C1.67 6.3 1.34 9.6 1 13 C0.67 13 0.34 13 0 13 C0 8.71 0 4.42 0 0 Z " fill="#0687D7" transform="translate(168,155)"/>
<path d="M0 0 C0.66 0.66 1.32 1.32 2 2 C-1.465 4.97 -1.465 4.97 -5 8 C-5 5 -5 5 -2.5 2.3125 C-1.675 1.549375 -0.85 0.78625 0 0 Z " fill="#1B8FD8" transform="translate(107,38)"/>
<path d="M0 0 C1.98 0.495 1.98 0.495 4 1 C3.67 2.32 3.34 3.64 3 5 C1.68 4.34 0.36 3.68 -1 3 C-0.67 2.01 -0.34 1.02 0 0 Z " fill="#FAFBFB" transform="translate(144,109)"/>
</svg>
